<?xml version="1.0" encoding="utf-8"?>
<!-- Generator: Adobe Illustrator 14.0.0, SVG Export Plug-In . SVG Version: 6.00 Build 43363)  -->
<!DOCTYPE svg PUBLIC "-//W3C//DTD SVG 1.0//EN" "http://www.w3.org/TR/2001/REC-SVG-20010904/DTD/svg10.dtd">
<svg version="1.0" id="Layer_1" xmlns="http://www.w3.org/2000/svg" xmlns:xlink="http://www.w3.org/1999/xlink" x="0px" y="0px"
	 width="99.244px" height="100px" viewBox="0 0 99.244 100" enable-background="new 0 0 99.244 100" xml:space="preserve">
<path d="M98.555,60.187c-0.812-1.956-1.624-3.91-2.437-5.865c-2.652-6.388-5.306-12.774-7.959-19.162
	C84.173,25.563,80.187,15.967,76.2,6.371c-0.061-0.146-0.165-0.255-0.335-0.255c-5.544,0-11.089,0-16.633,0
	c-0.103,0-0.181,0.037-0.235,0.093c-0.004,0.003-0.007,0.006-0.01,0.009c-0.003,0.003-0.007,0.006-0.009,0.01
	c-0.057,0.055-0.094,0.133-0.094,0.235c0,1.706,0,3.412,0,5.119c0,0.189,0.158,0.347,0.348,0.347c1.277,0,2.556,0,3.834,0
	c1.826,0,3.653,0,5.479,0c0.612,0,1.226,0,1.838,0c0.057,0,0.102,0.001,0.139,0.001c0.435,1.025,0.869,2.051,1.304,3.077
	c2.423,5.718,4.845,11.437,7.268,17.154c4.152,9.8,8.304,19.601,12.455,29.4c-0.076,0-0.152,0-0.229,0c-6.489,0-12.979,0-19.467,0
	c-0.974,0-1.946,0-2.919,0c-0.335,0-0.67,0-1.005,0h-1.481c-0.02,0.005-0.041,0.007-0.061,0.013
	c-0.231,0.063-0.412,0.455-0.534,0.632c-0.355,0.513-0.711,1.025-1.066,1.538c-1.049,1.516-2.098,3.03-3.146,4.545
	c-0.58,0.837-1.158,1.673-1.737,2.509c-0.123,0-0.246,0-0.368,0c-0.45,0-0.9,0-1.35,0c-2.854,0-5.709,0-8.562,0
	c-2.854,0-5.708,0-8.562,0c-0.449,0-0.899,0-1.35,0c-0.122,0-0.245,0-0.368,0c-0.579-0.836-1.157-1.672-1.737-2.509
	c-1.049-1.515-2.098-3.029-3.146-4.545c-0.355-0.513-0.711-1.025-1.066-1.538c-0.122-0.177-0.303-0.568-0.534-0.632
	c-0.02-0.006-0.041-0.008-0.061-0.013h-1.481c-0.335,0-0.67,0-1.005,0c-0.973,0-1.945,0-2.919,0c-6.488,0-12.978,0-19.467,0
	c-0.077,0-0.153,0-0.229,0c4.151-9.8,8.303-19.6,12.455-29.4c2.423-5.718,4.845-11.436,7.268-17.154
	c0.435-1.026,0.869-2.051,1.304-3.077c0.037,0,0.082-0.001,0.139-0.001c0.612,0,1.226,0,1.838,0c1.826,0,3.653,0,5.479,0
	c1.278,0,2.557,0,3.834,0c0.189,0,0.348-0.158,0.348-0.347c0-1.707,0-3.413,0-5.119c0-0.103-0.037-0.18-0.094-0.235
	c-0.002-0.003-0.006-0.006-0.009-0.01c-0.003-0.003-0.006-0.006-0.01-0.009c-0.055-0.056-0.133-0.093-0.235-0.093
	c-5.544,0-11.089,0-16.633,0c-0.17,0-0.274,0.109-0.335,0.255c-3.986,9.596-7.973,19.192-11.959,28.789
	c-2.653,6.387-5.307,12.774-7.959,19.162c-0.812,1.955-1.625,3.909-2.437,5.865C0.458,60.742,0,61.438,0,62.058
	c0,11.797,0,23.594,0,35.391c0,0.734,0,1.47,0,2.205C0,99.843,0.157,100,0.347,100c7.638,0,15.275,0,22.913,0
	c8.787,0,17.575,0,26.362,0s17.575,0,26.362,0c7.638,0,15.275,0,22.913,0c0.189,0,0.347-0.157,0.347-0.347c0-0.735,0-1.471,0-2.205
	c0-11.797,0-23.594,0-35.391C99.244,61.438,98.786,60.742,98.555,60.187z"/>
<path d="M67.09,40.912c-3.737,0-7.475,0-11.213,0c0-9.116,0-18.231,0-27.347c0-4.426,0-8.853,0-13.28C55.877,0.13,55.747,0,55.592,0
	c-3.98,0-7.96,0-11.94,0c-0.084,0-0.148,0.031-0.193,0.077c-0.003,0.002-0.006,0.005-0.009,0.007
	c-0.002,0.003-0.005,0.005-0.007,0.008c-0.046,0.045-0.077,0.109-0.077,0.193c0,9.211,0,18.422,0,27.632c0,4.332,0,8.663,0,12.994
	c-3.736,0-7.474,0-11.211,0c-0.261,0-0.361,0.306-0.202,0.487c5.791,6.599,11.582,13.197,17.373,19.797
	c0.031,0.035,0.063,0.071,0.095,0.107c0.098,0.111,0.306,0.111,0.403,0c5.792-6.599,11.583-13.198,17.374-19.796
	c0.031-0.036,0.062-0.072,0.095-0.108C67.451,41.218,67.351,40.912,67.09,40.912z"/>
</svg>
