<?xml version="1.0" encoding="utf-8"?>
<!-- Generator: Adobe Illustrator 14.0.0, SVG Export Plug-In . SVG Version: 6.00 Build 43363)  -->
<!DOCTYPE svg PUBLIC "-//W3C//DTD SVG 1.0//EN" "http://www.w3.org/TR/2001/REC-SVG-20010904/DTD/svg10.dtd">
<svg version="1.0" id="Layer_1" xmlns="http://www.w3.org/2000/svg" xmlns:xlink="http://www.w3.org/1999/xlink" x="0px" y="0px"
	 width="99.069px" height="100px" viewBox="0 0 99.069 100" enable-background="new 0 0 99.069 100" xml:space="preserve">
<polygon points="20.186,0 20.186,17.795 24.967,17.795 24.967,4.781 74.102,4.781 74.102,17.795 78.884,17.795 78.884,0 "/>
<path d="M0,19.92v49.136h18.062V57.9l-6.907,0.001V31.075h76.76v26.826L81.008,57.9v11.156h18.061V19.92H0z M95.173,28.253h-4.78
	v-4.782h4.78V28.253z"/>
<polygon points="74.102,44.488 74.102,95.22 43.559,95.22 43.559,76.627 24.967,76.627 24.967,44.488 20.186,44.488 20.186,44.488 
	20.186,79.813 40.372,100 78.884,100 78.884,44.488 "/>
<rect x="30.434" y="44.488" width="38.203" height="2.391"/>
<rect x="30.434" y="66.666" width="38.203" height="2.391"/>
<rect x="30.434" y="55.577" width="38.203" height="2.392"/>
</svg>
